<?xml version="1.0" encoding="utf-8"?>
<!-- Generator: Adobe Illustrator 25.1.0, SVG Export Plug-In . SVG Version: 6.00 Build 0)  -->
<svg version="1.1" xmlns="http://www.w3.org/2000/svg" xmlns:xlink="http://www.w3.org/1999/xlink" x="0px" y="0px"
	 viewBox="0 0 344 362.6" style="enable-background:new 0 0 344 362.6;" xml:space="preserve">
<style type="text/css">
	.st0{fill-rule:evenodd;clip-rule:evenodd;}
	.st1{fill-rule:evenodd;clip-rule:evenodd;fill:#FF9200;}
	.st2{fill-rule:evenodd;clip-rule:evenodd;fill:#808080;}
</style>
<g id="Layer_1">
	<g>
		<g>
			<path class="st0" d="M181.8,92.3c16.1-2.5,28.9,8.2,32.4,17c2.6,6.5,2,17.7,4.9,24.2c4.5,10,14.3,17.1,24.7,18.1
				c8.5,0.9,17.6-5.2,29.7-2.2c12.6,3.1,27,18.4,19.2,38.4c-3.6,9.3-13.1,17.1-25.3,17.6c-8.8,0.4-17.1-3.8-24.7-2.7
				c-10.9,1.4-20.5,10-24.2,18.7c-3.1,7.5-1.9,16.3-4.9,23.6c-4.6,10.9-20.1,22-36.8,15.4c-23.5-9.4-24.2-52.8,8.8-54.9
				c10.6-0.7,18.3,4.1,27.5,2.2c10.2-2.1,18-8.4,22-17.6c9.2-21.3-5.8-43.6-27.5-44.5c-11.6-0.5-16.7,4.4-26.9,2.2
				c-18.5-4.1-28.3-30-14.8-46.1C168.8,98.1,174.9,93.4,181.8,92.3z"/>
			<path class="st1" d="M242.7,102.2c10.3-2.3,20.3,2.4,23.1,11.5c3.8,12.8-5.8,28.7-23.1,25.3C223.8,135.2,225,106.1,242.7,102.2z"
				/>
			<path class="st2" d="M201,149.4c40.3-6.3,44.4,52.4,8.8,56c-9.9,1-15.6-3.4-24.7-2.7c-19.4,1.5-34.7,21.5-26.4,42.8
				c3.4,8.6,13.3,19.7,28.6,19.8c5.2,0,12.6-3.4,19.8-3.3c19.6,0.4,32.4,20.3,25.8,38.4c-8.5,23.5-44.1,23.9-53.3,1.1
				c-3.5-8.8-2.1-18.1-4.9-24.2c-3.8-8.2-13.5-17.8-27.5-18.1c-6.2-0.1-13.3,4.4-24.7,2.7c-15.8-2.3-28.8-21.9-20.9-40.1
				c2.6-5.9,10.3-15.2,22.5-16.5c10.7-1.2,17.4,3.4,25.3,2.7c10.6-0.9,21.2-7.7,25.8-18.7c3.2-7.6,1.7-16.1,4.4-23.1
				C182.7,158.2,190.4,151.1,201,149.4z"/>
			<path class="st1" d="M143.9,168.1c8.1-2,12,2.9,12.1,8.8c0.2,12-19.4,14.1-19.2,0C136.8,172.3,138.9,169.3,143.9,168.1z"/>
			<path class="st1" d="M244.4,220.2c9.9-2,17.7,4.1,17.6,13.7c-0.1,15.4-23.2,19.6-28,4.9C231.2,230.6,234.4,222.3,244.4,220.2z"/>
			<path class="st1" d="M142.8,265.8c17.9-2.4,35.6,14.7,26.9,35.1c-4.2,10-18.8,19.3-33.5,13.2
				C113.7,304.8,117.2,269.3,142.8,265.8z"/>
		</g>
	</g>
</g>
<g id="Layer_2">
	<g>
		<g>
			<path d="M329.7,358.4c-27.8-23.8-55-47.1-82.2-70.4c-0.3,0.1-0.6,0.3-0.8,0.4c3,10,6.1,20,9.2,30.3c-1.5,0.1-2.5,0.2-3.6,0.2
				c-66.6,0-133.2,0-199.8,0c-16.9,0-31.1-10.3-35.2-25.7c-1-3.7-1.2-7.7-1.2-11.6c-0.1-75.9,0.2-151.8-0.2-227.6
				c-0.1-19.7,14.8-37.4,37.3-37.7c0.6,0,1.1,0,1.7,0c78.6,0,157.1,0,235.7,0c18.5,0,33.5,10.7,38.1,27.4c0.9,3.2,1.2,6.6,1.2,9.9
				c0.1,100.4,0.1,200.7,0,301.1C329.9,355.7,329.8,356.6,329.7,358.4z M240.5,119.4c-45.3-19.9-90.7-20.3-136.3-0.8
				c12.6-9.7,27.2-15,42.6-19.1c-1.9-3.5-4.6-2.5-6.8-2.3c-12.6,1.3-24.3,5.4-35.5,11.3c-7.2,3.8-12.2,8.9-15.6,16.5
				c-11.8,26.5-19.4,53.8-21.1,82.9c-0.4,6,0.9,10.5,5.2,14.7c13.2,13,29.5,18.4,47.5,19.5c0.9,0.1,2.2-0.3,2.7-0.9
				c3.7-4.4,7.3-9,11-13.5c-5.3-2.5-10.4-4.6-15.3-7.2c-5-2.6-9.3-6.1-12.9-10.5c3.6,1.1,7,2.5,10.4,3.8
				c16.6,6.4,33.6,11.5,51.4,12.9c23.1,1.8,44.8-3.1,65.2-14c2.3-1.2,4.6-2.5,6.9-3.7c-7.6,9-17.8,13.8-29.2,17.5
				c3.7,4.6,6.8,8.6,10.3,12.4c1,1.1,3,2,4.5,2c20.6-0.8,38.2-8.3,52.3-23.4c0.9-0.9,1.4-2.6,1.4-3.9c-0.3-6.7-0.5-13.4-1.3-20
				c-3.1-26.5-11.2-51.6-23.5-75.3c-0.9-1.7-2.3-3.3-3.9-4.4c-13.5-9.5-28.5-15.1-45-16.5c-2.5-0.2-4,0.6-5,3.2
				C214.7,104.9,228.4,110.4,240.5,119.4z"/>
			<path d="M140.1,161c10,0,17.9,8.2,17.9,18.6c0,10.3-8,18.7-17.9,18.7c-10.3,0.1-18.2-8.1-18.2-18.7C122,169,129.8,161,140.1,161z
				"/>
			<path d="M224,179.7c-0.1,10.6-7.9,18.7-18.2,18.6c-9.9-0.1-17.8-8.4-17.8-18.8c0-10.6,8.2-18.7,18.7-18.6
				C216.4,161.1,224.1,169.3,224,179.7z"/>
		</g>
	</g>
</g>
</svg>
